#!OML:ASF F:\VICON\USERDATA\INSTALL\rory3\rory3.ASF
:FULLY-SPECIFIED
:DEGREES
330
root 2.53154 10.2567 -5.56775 355.082 -46.7852 358.952
lowerback 28.0962 1.71406 -0.347436
upperback 10.6972 1.73946 2.42048
thorax -3.63154 0.577035 2.34164
lowerneck -16.5329 -0.909875 -8.00437
upperneck 24.8082 0.715131 0.461312
head 10.7192 -0.428912 1.60201
rclavicle -4.13472e-014 3.97569e-015
rhumerus -29.5502 44.3407 -67.0347
rradius 96.5401
rwrist 30.2296
rhand -54.7338 25.3949
rfingers 7.12502
rthumb -27.1256 -2.67602
lclavicle -4.13472e-014 3.97569e-015
lhumerus -29.8161 -32.6228 83.7922
lradius 86.7449
lwrist -18.0771
lhand -48.1455 14.2607
lfingers 7.12502
lthumb -20.8082 43.1649
rfemur -80.9794 -19.7944 11.5424
rtibia 108.066
rfoot -12.4761 9.44924
rtoes -11.4472
lfemur -78.1641 23.3409 -9.44607
ltibia 114.164
lfoot -23.2168 -11.3415
ltoes -19.2073
331
root 2.5672 10.2974 -5.61149 354.676 -46.5867 358.968
lowerback 28.023 1.26695 -0.992484
upperback 10.4928 1.0481 2.87992
thorax -3.81001 0.220818 3.4302
lowerneck -16.5972 -0.478489 -9.60607
upperneck 24.4592 1.66869 0.845014
head 10.5502 -0.0878155 2.13196
rclavicle -5.96354e-014 -3.10104e-014
rhumerus -28.7506 46.1309 -66.395
rradius 96.2364
rwrist 30.1298
rhand -54.2158 24.4639
rfingers 7.12502
rthumb -26.6298 -3.68328
lclavicle -5.96354e-014 -3.10104e-014
lhumerus -30.8536 -30.5157 84.9733
lradius 86.6389
lwrist -18.8563
lhand -47.9572 14.6876
lfingers 7.12502
lthumb -20.6272 43.6116
rfemur -80.2577 -19.7416 11.4257
rtibia 107.723
rfoot -12.426 9.31185
rtoes -11.1755
lfemur -77.7179 22.7471 -9.46026
ltibia 113.888
lfoot -22.8201 -10.8039
ltoes -19.4853
332
root 2.58111 10.2807 -5.64249 354.523 -46.3784 358.853
lowerback 27.8948 1.28181 -1.1677
upperback 10.2852 1.05406 3.06886
thorax -3.98748 0.227233 3.73842
lowerneck -16.8286 -0.527292 -9.65973
upperneck 24.2267 1.59688 1.02673
head 10.5094 -0.0926304 2.19522
rclavicle -5.56597e-015 1.11319e-014
rhumerus -29.0998 45.9898 -66.7739
rradius 95.9949
rwrist 30.3503
rhand -53.7783 23.1644
rfingers 7.12502
rthumb -26.2111 -5.04565
lclavicle -5.56597e-015 1.11319e-014
lhumerus -31.1671 -30.576 85.5357
lradius 86.4706
lwrist -19.3544
lhand -47.7716 14.7638
lfingers 7.12502
lthumb -20.449 43.707
rfemur -80.1396 -19.7842 11.4353
rtibia 107.743
rfoot -12.3157 9.21695
rtoes -11.4183
lfemur -77.9394 22.3984 -9.40554
ltibia 113.998
lfoot -22.424 -10.3628
ltoes -20.4274
333
root 2.58995 10.2692 -5.67182 354.316 -46.304 358.647
lowerback 27.7895 1.24639 -1.18375
upperback 10.2065 1.0161 3.12206
thorax -4.02398 0.211187 3.81774
lowerneck -17.0964 -0.577951 -9.60125
upperneck 23.8358 1.47003 1.30189
head 10.4189 -0.0939005 2.26398
rclavicle -6.0033e-014 2.22639e-014
rhumerus -29.1399 45.8256 -67.1156
rradius 95.7081
rwrist 30.5731
rhand -53.5115 21.9204
rfingers 7.12502
rthumb -25.9556 -6.32741
lclavicle -6.0033e-014 2.22639e-014
lhumerus -31.2507 -30.6535 85.7289
lradius 86.3047
lwrist -19.5203
lhand -47.5695 14.783
lfingers 7.12502
lthumb -20.2547 43.7469
rfemur -79.8457 -19.661 11.5166
rtibia 107.738
rfoot -12.29 8.98307
rtoes -11.9
lfemur -77.9404 22.2422 -9.21394
ltibia 114.097
lfoot -21.9701 -10.0038
ltoes -21.1213
334
root 2.60062 10.2522 -5.69801 354.011 -46.1936 358.522
lowerback 27.7165 1.18014 -1.15915
upperback 10.1674 0.941732 3.10774
thorax -4.02716 0.177597 3.80986
lowerneck -17.5031 -0.5357 -9.40724
upperneck 23.5311 1.4902 1.43301
head 10.3807 -0.0374589 2.28056
rclavicle -3.65764e-014 1.51076e-014
rhumerus -29.0705 45.5259 -67.3806
rradius 95.579
rwrist 30.4401
rhand -52.8464 21.8544
rfingers 7.12502
rthumb -25.3186 -6.48512
lclavicle -3.65764e-014 1.51076e-014
lhumerus -31.1937 -30.7709 85.7835
lradius 86.186
lwrist -19.442
lhand -47.3628 14.5903
lfingers 7.12502
lthumb -20.056 43.5752
rfemur -79.5123 -19.612 11.4763
rtibia 107.794
rfoot -12.2712 8.81482
rtoes -11.8282
lfemur -77.9219 22.0432 -9.0832
ltibia 114.278
lfoot -21.4674 -9.92303
ltoes -19.8916
335
root 2.61335 10.2483 -5.71481 353.195 -46.2668 358.819
lowerback 27.4937 0.991719 -0.833184
upperback 10.4029 0.734445 2.5501
thorax -3.63646 0.0835073 3.0659
lowerneck -17.9682 -0.340818 -8.98458
upperneck 23.003 1.5927 1.83071
head 10.2613 0.118581 2.36316
rclavicle -2.60408e-014 2.22639e-014
rhumerus -28.6556 44.863 -68.1525
rradius 95.5101
rwrist 30.1485
rhand -51.9227 22.5155
rfingers 7.12502
rthumb -24.4334 -5.94634
lclavicle -2.60408e-014 2.22639e-014
lhumerus -30.7981 -31.0669 84.9285
lradius 86.1863
lwrist -19.4616
lhand -47.1052 14.4815
lfingers 7.12502
lthumb -19.8085 43.4921
rfemur -78.8954 -19.4076 11.0202
rtibia 107.8
rfoot -12.2041 8.9057
rtoes -11.3215
lfemur -77.3476 21.908 -9.18126
ltibia 114.408
lfoot -21.1386 -9.59503
ltoes -18.0197
336
root 2.62619 10.2293 -5.73992 352.782 -46.1557 358.858
lowerback 27.3241 0.987584 -0.590864
upperback 10.486 0.773692 2.31168
thorax -3.46155 0.111399 2.65136
lowerneck -18.3225 -0.362127 -8.66793
upperneck 22.444 1.43122 2.1473
head 10.1296 0.133661 2.39627
rclavicle -7.09661e-014 3.89618e-014
rhumerus -28.5589 43.9795 -68.6476
rradius 95.3256
rwrist 29.9771
rhand -51.3189 22.7686
rfingers 7.12502
rthumb -23.8544 -5.77019
lclavicle -7.09661e-014 3.89618e-014
lhumerus -30.4441 -31.6402 84.5732
lradius 86.1436
lwrist -19.791
lhand -46.7913 14.3414
lfingers 7.12502
lthumb -19.5066 43.3829
rfemur -78.6214 -19.4289 10.8603
rtibia 107.861
rfoot -12.1111 8.98319
rtoes -10.9807
lfemur -77.3295 21.6862 -9.28564
ltibia 114.616
lfoot -20.6553 -9.05655
ltoes -18.127
